<svg width="23" height="24" viewBox="0 0 23 24" fill="none" xmlns="http://www.w3.org/2000/svg">
<path d="M1.43726 2L21.4373 22" stroke="#191919" stroke-opacity="0.5" stroke-width="2.4" stroke-linecap="round" stroke-linejoin="round"/>
<path d="M6.15003 6.72262C3.10205 8.79528 1.43726 12 1.43726 12C1.43726 12 5.07362 19 11.4373 19C13.4876 19 15.2547 18.2734 16.7084 17.2884M10.4373 5.05824C10.7627 5.02015 11.0961 5.00002 11.4373 5.00002C17.8009 5.00002 21.4373 12 21.4373 12C21.4373 12 20.7455 13.3317 19.4373 14.8335" stroke="#191919" stroke-opacity="0.5" stroke-width="2.4" stroke-linecap="round" stroke-linejoin="round"/>
<path d="M13.4373 14.2362C12.9065 14.7112 12.2057 15.0001 11.4373 15.0001C9.78042 15.0001 8.43732 13.657 8.43732 12.0001C8.43732 11.1764 8.76925 10.4303 9.30664 9.88818" stroke="#191919" stroke-opacity="0.5" stroke-width="2.4" stroke-linecap="round" stroke-linejoin="round"/>
</svg>
