<svg width="20" height="20" viewBox="0 0 20 20" fill="none" xmlns="http://www.w3.org/2000/svg">
<path d="M7.74139 18.9585C7.65222 18.9585 7.56278 18.9368 7.48111 18.8935C7.29472 18.7949 7.18028 18.5988 7.18583 18.3885L7.24 16.3199H5.84694C4.78528 16.3199 4.02722 15.4449 4.02722 14.3696V7.10933C4.02722 6.06127 4.78528 5.2085 5.84694 5.2085H16.9961C18.0578 5.2085 19.0275 6.061 19.0275 7.10933V14.3693C19.0275 15.4446 18.0581 16.3196 16.9961 16.3196H11.6006L8.065 18.8543C7.96889 18.9235 7.85528 18.9585 7.74139 18.9585ZM5.8475 6.31961C5.39083 6.31961 5.13889 6.66655 5.13889 7.10933V14.3693C5.13889 14.8246 5.40611 15.2085 5.8475 15.2085H7.81083C7.96083 15.2085 8.10444 15.2688 8.20889 15.3763C8.31361 15.4838 8.37028 15.6291 8.36611 15.7788L8.32611 17.3002L11.0981 15.3129C11.1925 15.2452 11.3056 15.2088 11.4217 15.2088H16.9961C17.4375 15.2088 17.9164 14.8246 17.9164 14.3696V7.10933C17.9164 6.66655 17.4528 6.31961 16.9961 6.31961H5.8475Z" fill="#BFC2C8"/>
<path d="M1.8555 11.7087C1.72439 11.7087 1.64606 11.6626 1.54022 11.5687C1.13383 11.209 0.972168 10.7365 0.972168 10.2026V2.94258C0.972168 1.89453 1.73022 1.04175 2.79189 1.04175H13.9411C15.0027 1.04175 15.9724 1.89425 15.9724 2.94258V3.26397C15.9724 3.57064 15.7236 3.81953 15.4169 3.81953C15.1102 3.81953 14.8613 3.57064 14.8613 3.26397V2.94258C14.8613 2.4998 14.3977 2.15286 13.9411 2.15286H2.79189C2.33522 2.15286 2.08328 2.4998 2.08328 2.94258V10.2026C2.08328 10.4154 2.11106 10.5901 2.27689 10.737C2.50661 10.9404 2.50161 11.292 2.298 11.5215C2.188 11.6451 2.00883 11.7087 1.8555 11.7087Z" fill="#BFC2C8"/>
<path d="M9.47742 8.81947H7.25519C7.10158 8.81947 6.97742 8.6953 6.97742 8.54169C6.97742 8.38808 7.10158 8.26392 7.25519 8.26392H9.47742C9.63103 8.26392 9.75519 8.38808 9.75519 8.54169C9.75519 8.6953 9.63103 8.81947 9.47742 8.81947Z" fill="#BFC2C8"/>
<path d="M13.3663 8.81947H10.5886C10.435 8.81947 10.3108 8.6953 10.3108 8.54169C10.3108 8.38808 10.435 8.26392 10.5886 8.26392H13.3663C13.52 8.26392 13.6441 8.38808 13.6441 8.54169C13.6441 8.6953 13.52 8.81947 13.3663 8.81947Z" fill="#BFC2C8"/>
<path d="M15.5885 8.81947H14.4774C14.3238 8.81947 14.1996 8.6953 14.1996 8.54169C14.1996 8.38808 14.3238 8.26392 14.4774 8.26392H15.5885C15.7421 8.26392 15.8663 8.38808 15.8663 8.54169C15.8663 8.6953 15.7421 8.81947 15.5885 8.81947Z" fill="#BFC2C8"/>
<path d="M8.36631 10.2084H7.25519C7.10158 10.2084 6.97742 10.0839 6.97742 9.93061C6.97742 9.77728 7.10158 9.65283 7.25519 9.65283H8.36631C8.51992 9.65283 8.64408 9.777 8.64408 9.93061C8.64408 10.0842 8.51992 10.2084 8.36631 10.2084Z" fill="#BFC2C8"/>
<path d="M11.6996 10.2084H9.47736C9.32375 10.2084 9.19958 10.0839 9.19958 9.93061C9.19958 9.77728 9.32375 9.65283 9.47736 9.65283H11.6996C11.8532 9.65283 11.9774 9.777 11.9774 9.93061C11.9774 10.0842 11.8532 10.2084 11.6996 10.2084Z" fill="#BFC2C8"/>
<path d="M15.5885 10.2084H12.8107C12.6571 10.2084 12.533 10.0839 12.533 9.93061C12.533 9.77728 12.6571 9.65283 12.8107 9.65283H15.5885C15.7421 9.65283 15.8663 9.777 15.8663 9.93061C15.8663 10.0842 15.7421 10.2084 15.5885 10.2084Z" fill="#BFC2C8"/>
<path d="M10.033 11.8751H7.25519C7.10158 11.8751 6.97742 11.751 6.97742 11.5974C6.97742 11.4437 7.10158 11.3196 7.25519 11.3196H10.033C10.1866 11.3196 10.3108 11.4437 10.3108 11.5974C10.3108 11.751 10.1866 11.8751 10.033 11.8751Z" fill="#BFC2C8"/>
<path d="M13.9219 11.8751H11.1441C10.9905 11.8751 10.8663 11.751 10.8663 11.5974C10.8663 11.4437 10.9905 11.3196 11.1441 11.3196H13.9219C14.0755 11.3196 14.1997 11.4437 14.1997 11.5974C14.1997 11.751 14.0755 11.8751 13.9219 11.8751Z" fill="#BFC2C8"/>
<path d="M15.5886 11.8751H15.033C14.8794 11.8751 14.7552 11.751 14.7552 11.5974C14.7552 11.4437 14.8794 11.3196 15.033 11.3196H15.5886C15.7422 11.3196 15.8664 11.4437 15.8664 11.5974C15.8664 11.751 15.7422 11.8751 15.5886 11.8751Z" fill="#BFC2C8"/>
<path d="M8.36631 13.2641H7.25519C7.10158 13.2641 6.97742 13.1399 6.97742 12.9863C6.97742 12.8327 7.10158 12.7085 7.25519 12.7085H8.36631C8.51992 12.7085 8.64408 12.8327 8.64408 12.9863C8.64408 13.1399 8.51992 13.2641 8.36631 13.2641Z" fill="#BFC2C8"/>
<path d="M11.4218 13.2641H9.47736C9.32375 13.2641 9.19958 13.1399 9.19958 12.9863C9.19958 12.8327 9.32375 12.7085 9.47736 12.7085H11.4218C11.5754 12.7085 11.6996 12.8327 11.6996 12.9863C11.6996 13.1399 11.5754 13.2641 11.4218 13.2641Z" fill="#BFC2C8"/>
</svg>
