<svg width="23" height="18" viewBox="0 0 23 18" fill="none" xmlns="http://www.w3.org/2000/svg">
<path d="M6.15003 3.72262C3.10205 5.79528 1.43726 9.00001 1.43726 9.00001C1.43726 9.00001 5.07362 16 11.4373 16C13.4876 16 15.2547 15.2734 16.7084 14.2884M10.4373 2.05824C10.7627 2.02015 11.0961 2.00002 11.4373 2.00002C17.8009 2.00002 21.4373 9.00001 21.4373 9.00001C21.4373 9.00001 20.7455 10.3317 19.4373 11.8335" stroke="#191919" stroke-opacity="0.5" stroke-width="2.4" stroke-linecap="round" stroke-linejoin="round"/>
<path d="M13.4373 11.2362C12.9065 11.7112 12.2057 12.0001 11.4373 12.0001C9.78042 12.0001 8.43732 10.657 8.43732 9.0001C8.43732 8.1764 8.76925 7.4303 9.30664 6.88818" stroke="#191919" stroke-opacity="0.5" stroke-width="2.4" stroke-linecap="round" stroke-linejoin="round"/>
</svg>
