<svg width="25" height="25" viewBox="0 0 25 25" fill="none" xmlns="http://www.w3.org/2000/svg">
<path d="M12.5 2.11865C6.76653 2.11867 2.11867 6.76653 2.11865 12.5C2.11867 18.2334 6.76654 22.8813 12.5 22.8813C18.2334 22.8813 22.8813 18.2334 22.8813 12.5C22.8813 6.76654 18.2334 2.11867 12.5 2.11865ZM17.8775 6.78136C18.2993 6.76598 18.6186 7.14777 18.4475 7.83383L16.3906 17.5277C16.247 18.2166 15.8305 18.3815 15.2538 18.0633L12.12 15.7478C11.384 16.4634 10.7246 17.1044 10.6136 17.213C10.439 17.3836 10.2999 17.5266 9.98647 17.5266C9.58026 17.5266 9.64939 17.3729 9.50925 16.9861L8.35644 13.4521L5.3436 12.5114C4.67429 12.3064 4.66942 11.8466 5.4939 11.5158L17.5739 6.85651C17.6773 6.80956 17.7802 6.7849 17.8775 6.78136ZM15.9614 8.8432C15.8706 8.84193 15.7471 8.87444 15.62 8.95154L8.82947 13.2358L9.9735 16.7442L10.2001 14.3295L16.0148 9.08315C16.1743 8.94156 16.1128 8.8453 15.9614 8.8432Z" fill="#0A2B36"/>
</svg>
