<svg width="25" height="25" viewBox="0 0 25 25" fill="none" xmlns="http://www.w3.org/2000/svg">
<path d="M12.5 2.11868C6.76653 2.1187 2.11867 6.76657 2.11865 12.5C2.11867 18.2334 6.76654 22.8813 12.5 22.8813C18.2334 22.8813 22.8813 18.2334 22.8813 12.5C22.8813 6.76657 18.2334 2.1187 12.5 2.11868ZM17.8775 6.78139C18.2993 6.76601 18.6186 7.1478 18.4475 7.83386L16.3906 17.5278C16.247 18.2167 15.8305 18.3815 15.2538 18.0634L12.12 15.7478C11.384 16.4635 10.7246 17.1044 10.6136 17.2131C10.439 17.3836 10.2999 17.5266 9.98647 17.5266C9.58026 17.5266 9.64939 17.3729 9.50925 16.9861L8.35644 13.4521L5.3436 12.5114C4.67429 12.3064 4.66942 11.8466 5.4939 11.5158L17.5739 6.85654C17.6773 6.80959 17.7802 6.78493 17.8775 6.78139ZM15.9614 8.84323C15.8706 8.84196 15.7471 8.87447 15.62 8.95157L8.82947 13.2359L9.9735 16.7442L10.2001 14.3295L16.0148 9.08318C16.1743 8.94159 16.1128 8.84533 15.9614 8.84323Z" fill="#33747E"/>
</svg>
